<?xml version="1.0" encoding="UTF-8"?>
<svg xmlns="http://www.w3.org/2000/svg" version="1.1" width="200px" height="200px" style="shape-rendering:geometricPrecision; text-rendering:geometricPrecision; image-rendering:optimizeQuality; fill-rule:evenodd; clip-rule:evenodd" xmlns:xlink="http://www.w3.org/1999/xlink">
<g><path style="opacity:1" fill="#e96317" d="M 101.5,4.5 C 124.061,1.88756 133.228,11.5542 129,33.5C 122.216,44.4244 112.716,47.591 100.5,43C 90.6441,35.6313 87.8108,26.1313 92,14.5C 94.6961,10.6393 97.8627,7.30598 101.5,4.5 Z"/></g>
<g><path style="opacity:1" fill="#ea6317" d="M 121.5,86.5 C 119.562,84.8372 117.228,84.1706 114.5,84.5C 107.686,84.2959 101.019,84.7959 94.5,86C 86.9854,78.6523 79.6521,71.1523 72.5,63.5C 80.3479,56.6622 89.5145,52.3289 100,50.5C 103.358,54.1927 107.025,57.526 111,60.5C 114.327,57.0065 117.827,53.6731 121.5,50.5C 131.37,53.3924 140.37,57.8924 148.5,64C 141.343,71.6576 134.009,79.1576 126.5,86.5C 124.833,87.6664 123.166,87.6664 121.5,86.5 Z"/></g>
<g><path style="opacity:1" fill="#ea6419" d="M 95.5,157.5 C 104.391,160.991 113.391,161.325 122.5,158.5C 151.053,148.344 162.886,128.011 158,97.5C 155.789,90.7442 152.289,84.7442 147.5,79.5C 149.866,76.2992 152.7,73.6325 156,71.5C 159.324,74.3309 162.157,77.6642 164.5,81.5C 179.313,117.561 170.313,146.061 137.5,167C 120.314,173.932 102.98,174.266 85.5,168C 82.3659,166.411 79.3659,164.578 76.5,162.5C 67.3536,173.481 58.0203,184.314 48.5,195C 33.5929,197.757 26.4262,191.59 27,176.5C 29.128,173.37 31.628,170.537 34.5,168C 42.6667,161.167 50.8333,154.333 59,147.5C 59.1667,146.833 59.3333,146.167 59.5,145.5C 46.3421,122.944 46.1755,100.278 59,77.5C 61.021,75.395 63.021,73.395 65,71.5C 68.1391,73.6382 70.9724,76.1382 73.5,79C 62.0591,93.8315 59.2257,110.331 65,128.5C 70.8318,142.834 80.9985,152.501 95.5,157.5 Z"/></g>
<g><path style="opacity:1" fill="#ee9c6e" d="M 114.5,84.5 C 117.228,84.1706 119.562,84.8372 121.5,86.5C 118.933,86.2785 116.599,85.6118 114.5,84.5 Z"/></g>
<g><path style="opacity:1" fill="#f8cfb9" d="M 95.5,157.5 C 104.467,158.383 113.467,158.716 122.5,158.5C 113.391,161.325 104.391,160.991 95.5,157.5 Z"/></g>
<g><path style="opacity:1" fill="#141414" d="M 170.5,163.5 C 171.693,163.97 172.36,164.97 172.5,166.5C 170.936,174.488 169.436,182.488 168,190.5C 167.29,191.973 166.124,192.64 164.5,192.5C 165.483,182.585 167.483,172.919 170.5,163.5 Z"/></g>
<g><path style="opacity:1" fill="#161616" d="M 155.5,166.5 C 156.5,166.5 157.5,166.5 158.5,166.5C 158.657,167.873 158.49,169.207 158,170.5C 155.317,173.016 152.817,175.683 150.5,178.5C 152.817,181.317 155.317,183.984 158,186.5C 158.483,187.448 158.649,188.448 158.5,189.5C 153.137,186.978 148.803,183.145 145.5,178C 148.656,174.011 151.989,170.177 155.5,166.5 Z"/></g>
<g><path style="opacity:1" fill="#161616" d="M 179.5,166.5 C 184.863,169.022 189.197,172.855 192.5,178C 189.197,183.145 184.863,186.978 179.5,189.5C 179.351,188.448 179.517,187.448 180,186.5C 182.683,183.984 185.183,181.317 187.5,178.5C 185.183,175.683 182.683,173.016 180,170.5C 179.51,169.207 179.343,167.873 179.5,166.5 Z"/></g>
</svg>
